<svg width="16" height="16" viewBox="0 0 16 16" fill="none" xmlns="http://www.w3.org/2000/svg">
<path d="M8.62743 2.16699V3.95866H1.41174V2.16699H8.62743ZM8.62743 5.70866V7.50033H1.41174V5.70866H8.62743ZM1.41174 11.042V9.29199H5.2941V11.042H1.41174ZM10.3137 2.16699H14.4706V3.95866H11.9608V11.9587C11.9608 12.6809 11.7189 13.3059 11.2353 13.8337C10.7516 14.3614 10.1634 14.6253 9.47057 14.6253C8.77776 14.6253 8.18299 14.3614 7.68625 13.8337C7.18952 13.3059 6.94115 12.6739 6.94115 11.9378C6.94115 11.2017 7.18952 10.5767 7.68625 10.0628C8.18299 9.54894 8.77122 9.29199 9.45096 9.29199C9.73854 9.29199 10.0261 9.34755 10.3137 9.45866V2.16699Z" fill="#7D7C8A"/>
</svg>
